<svg xmlns="http://www.w3.org/2000/svg" width="22.04" height="22.038" viewBox="0 0 22.04 22.038"><defs><style>.a{fill:#f8f9fa;}</style></defs><path class="a" d="M-10672.446,22.179l-9.057-9.057-9.058,9.057a1.151,1.151,0,0,1-1.626,0,1.151,1.151,0,0,1,0-1.626l9.057-9.057-9.057-9.057a1.148,1.148,0,0,1,0-1.626,1.151,1.151,0,0,1,1.626,0l9.058,9.057,9.057-9.057a1.151,1.151,0,0,1,1.626,0,1.151,1.151,0,0,1,0,1.626l-9.057,9.057,9.057,9.057a1.151,1.151,0,0,1,0,1.626,1.151,1.151,0,0,1-.814.336A1.143,1.143,0,0,1-10672.446,22.179Z" transform="translate(10692.524 -0.477)"/></svg>