<svg xmlns="http://www.w3.org/2000/svg" width="30" height="30" viewBox="0 0 30 30"><defs><style>.a{fill:#f8f9fa;}</style></defs><path class="a" d="M143.456,153.06a15,15,0,1,0,15,15A15,15,0,0,0,143.456,153.06Zm.016,6.219h0a.984.984,0,0,1,.983.98l.037,10.451a.984.984,0,0,1-.98.987h0a.983.983,0,0,1-.983-.98l-.037-10.451A.984.984,0,0,1,143.472,159.279Zm1.905,17.561a12.482,12.482,0,0,1-11.8-9.136.984.984,0,0,1,1.913-.458,10.586,10.586,0,0,0,9.884,7.627.984.984,0,1,1,0,1.967Zm7.9-8.778a.983.983,0,0,1-1.3.5l-4.713-2.11a.984.984,0,0,1-.007-1.793l4.713-2.152a.984.984,0,0,1,.817,1.79l-2.734,1.248,2.728,1.221A.984.984,0,0,1,153.273,168.062Z" transform="translate(-128.456 -153.06)"/></svg>