<svg xmlns="http://www.w3.org/2000/svg" width="30.216" height="22.3" viewBox="0 0 30.216 22.3"><defs><style>.a{fill:#f8f9fa;}</style></defs><g transform="translate(-1523.392 -105.35)"><path class="a" d="M27.916,1.15H0A1.15,1.15,0,0,1-1.15,0,1.15,1.15,0,0,1,0-1.15H27.916A1.15,1.15,0,0,1,29.066,0,1.15,1.15,0,0,1,27.916,1.15Z" transform="translate(1524.542 106.5)"/><path class="a" d="M27.916,1.15H0A1.15,1.15,0,0,1-1.15,0,1.15,1.15,0,0,1,0-1.15H27.916A1.15,1.15,0,0,1,29.066,0,1.15,1.15,0,0,1,27.916,1.15Z" transform="translate(1524.542 116.5)"/><path class="a" d="M27.916,1.15H0A1.15,1.15,0,0,1-1.15,0,1.15,1.15,0,0,1,0-1.15H27.916A1.15,1.15,0,0,1,29.066,0,1.15,1.15,0,0,1,27.916,1.15Z" transform="translate(1524.542 126.5)"/></g></svg>