<svg xmlns="http://www.w3.org/2000/svg" width="47.647" height="60.11" viewBox="0 0 47.647 60.11"><defs><style>.a{fill:#1c1c1c;}</style></defs><path class="a" d="M28.915,64.383q-11.729,0-17.776-5.315T5.091,43.711V25.238q0-10.189,6.084-15.577T28.988,4.273q11.729,0,17.74,5.388t6.011,15.577V43.711q0,10.043-6.048,15.357T28.915,64.383Zm0-8.8q7.037,0,9.933-2.9t2.9-9.713V25.971q0-7.037-2.9-9.969t-9.933-2.932q-7.037,0-9.933,2.932t-2.9,9.969V42.978q0,6.817,2.9,9.713T28.915,55.586Z" transform="translate(-5.091 -4.273)"/></svg>