<svg xmlns="http://www.w3.org/2000/svg" width="61.982" height="62.909" viewBox="0 0 61.982 62.909"><defs><style>.a{fill:#f8f9fa;}</style></defs><g transform="translate(-26.091 -26.273)"><path class="a" d="M6,19V4.455h5.673a5.521,5.521,0,0,1,3.6,1.047A3.639,3.639,0,0,1,16.545,8.48v1.895a3.5,3.5,0,0,1-1.273,2.9,5.625,5.625,0,0,1-3.6,1.02H8.727V19Zm2.727-6.891h2.636a3.008,3.008,0,0,0,1.882-.464,1.891,1.891,0,0,0,.573-1.555v-1.4a1.948,1.948,0,0,0-.573-1.573,2.922,2.922,0,0,0-1.882-.482H8.727Z" transform="translate(21 22)"/><path class="a" d="M9.636,19V6.636H5.091V4.455H16.909V6.636H12.364V19Z" transform="translate(21 46)"/><path class="a" d="M6.909,19V4.455H9.636V16.818h6.455V19Z" transform="translate(21 70)"/><path class="a" d="M11,19.182a6.5,6.5,0,0,1-4.409-1.318,4.8,4.8,0,0,1-1.5-3.809V9.473A4.888,4.888,0,0,1,6.6,5.609a6.472,6.472,0,0,1,4.418-1.336,6.4,6.4,0,0,1,4.4,1.336,4.919,4.919,0,0,1,1.491,3.864v4.582a4.8,4.8,0,0,1-1.5,3.809A6.5,6.5,0,0,1,11,19.182ZM11,17a3.419,3.419,0,0,0,2.464-.718,3.328,3.328,0,0,0,.718-2.409V9.655a3.454,3.454,0,0,0-.718-2.473A3.39,3.39,0,0,0,11,6.455a3.39,3.39,0,0,0-2.464.727,3.454,3.454,0,0,0-.718,2.473v4.218a3.328,3.328,0,0,0,.718,2.409A3.419,3.419,0,0,0,11,17Z" transform="translate(46 22)"/><path class="a" d="M6,19V4.455H16.364V6.636H8.727v4.636h6.364v2.182H8.727V19Z" transform="translate(46 46)"/><path class="a" d="M6,19V16.818H9.636V6.636H6V4.455H16V6.636H12.364V16.818H16V19Z" transform="translate(46 70)"/><path class="a" d="M7.818,11.473h3.818a2.981,2.981,0,0,0,1.836-.427A1.785,1.785,0,0,0,14,9.582V8.455a1.681,1.681,0,0,0-.527-1.409,3.085,3.085,0,0,0-1.836-.409H7.818Zm0,7.527H5.091V4.455h7.018a5.149,5.149,0,0,1,3.436,1.011,3.635,3.635,0,0,1,1.182,2.924V9.61a3.95,3.95,0,0,1-.836,2.632,4.007,4.007,0,0,1-2.455,1.284L17.073,19H13.964l-3.545-5.345h-2.6Z" transform="translate(71 22)"/><path class="a" d="M11,19.182a6.5,6.5,0,0,1-4.409-1.318,4.8,4.8,0,0,1-1.5-3.809V9.473A4.888,4.888,0,0,1,6.6,5.609a6.472,6.472,0,0,1,4.418-1.336,6.4,6.4,0,0,1,4.4,1.336,4.919,4.919,0,0,1,1.491,3.864v4.582a4.8,4.8,0,0,1-1.5,3.809A6.5,6.5,0,0,1,11,19.182ZM11,17a3.419,3.419,0,0,0,2.464-.718,3.328,3.328,0,0,0,.718-2.409V9.655a3.454,3.454,0,0,0-.718-2.473A3.39,3.39,0,0,0,11,6.455a3.39,3.39,0,0,0-2.464.727,3.454,3.454,0,0,0-.718,2.473v4.218a3.328,3.328,0,0,0,.718,2.409A3.419,3.419,0,0,0,11,17Z" transform="translate(71 46)"/><path class="a" d="M11,19.182a6.5,6.5,0,0,1-4.409-1.318,4.8,4.8,0,0,1-1.5-3.809V9.473A4.888,4.888,0,0,1,6.6,5.609a6.472,6.472,0,0,1,4.418-1.336,6.4,6.4,0,0,1,4.4,1.336,4.919,4.919,0,0,1,1.491,3.864v4.582a4.8,4.8,0,0,1-1.5,3.809A6.5,6.5,0,0,1,11,19.182ZM11,17a3.419,3.419,0,0,0,2.464-.718,3.328,3.328,0,0,0,.718-2.409V9.655a3.454,3.454,0,0,0-.718-2.473A3.39,3.39,0,0,0,11,6.455a3.39,3.39,0,0,0-2.464.727,3.454,3.454,0,0,0-.718,2.473v4.218a3.328,3.328,0,0,0,.718,2.409A3.419,3.419,0,0,0,11,17Z" transform="translate(71 70)"/></g></svg>